# Blender v2.90.1 OBJ File: 'battery.blend'
# www.blender.org
mtllib battery.mtl
o Cylinder.001
v 0.212353 1.322836 -0.107538
v 0.212353 1.054611 -0.107538
v 0.191373 1.322836 -0.105472
v 0.191373 1.054611 -0.105472
v 0.171200 1.322836 -0.099352
v 0.171200 1.054611 -0.099352
v 0.152608 1.322836 -0.089415
v 0.152608 1.054611 -0.089415
v 0.136312 1.322836 -0.076041
v 0.136312 1.054611 -0.076041
v 0.122938 1.322836 -0.059745
v 0.122938 1.054611 -0.059745
v 0.113001 1.322836 -0.041153
v 0.113001 1.054611 -0.041153
v 0.106881 1.322836 -0.020980
v 0.106881 1.054611 -0.020980
v 0.104815 1.322836 -0.000000
v 0.104815 1.054611 -0.000000
v 0.106881 1.322836 0.020980
v 0.106881 1.054611 0.020980
v 0.113001 1.322836 0.041153
v 0.113001 1.054611 0.041153
v 0.122938 1.322836 0.059745
v 0.122938 1.054611 0.059745
v 0.136312 1.322836 0.076041
v 0.136312 1.054611 0.076041
v 0.152608 1.322836 0.089415
v 0.152608 1.054611 0.089415
v 0.171200 1.322836 0.099352
v 0.171200 1.054611 0.099352
v 0.191373 1.322836 0.105472
v 0.191373 1.054611 0.105472
v 0.212353 1.322836 0.107538
v 0.212353 1.054611 0.107538
v 0.233333 1.322836 0.105472
v 0.233333 1.054611 0.105472
v 0.253506 1.322836 0.099352
v 0.253506 1.054611 0.099352
v 0.272098 1.322836 0.089415
v 0.272098 1.054611 0.089415
v 0.288394 1.322836 0.076041
v 0.288394 1.054611 0.076041
v 0.301768 1.322836 0.059745
v 0.301768 1.054611 0.059745
v 0.311705 1.322836 0.041153
v 0.311705 1.054611 0.041153
v 0.317825 1.322836 0.020980
v 0.317825 1.054611 0.020980
v 0.319891 1.322836 -0.000000
v 0.319891 1.054611 -0.000000
v 0.317825 1.322836 -0.020980
v 0.317825 1.054611 -0.020980
v 0.311705 1.322836 -0.041153
v 0.311705 1.054611 -0.041153
v 0.301767 1.322836 -0.059745
v 0.301767 1.054611 -0.059745
v 0.288394 1.322836 -0.076041
v 0.288394 1.054611 -0.076041
v 0.272098 1.322836 -0.089415
v 0.272098 1.054611 -0.089415
v 0.253506 1.322836 -0.099352
v 0.253506 1.054611 -0.099352
v 0.233332 1.322836 -0.105472
v 0.233332 1.054611 -0.105472
v 0.508071 1.055977 -0.356403
v 0.769796 -1.055977 -0.539999
v 0.508071 1.055977 0.356403
v 0.769796 -1.055977 0.539999
v -0.508071 1.055977 -0.356403
v -0.769796 -1.055977 -0.539999
v -0.508071 1.055977 0.356403
v -0.769796 -1.055977 0.539999
v 0.769796 1.055977 0.539999
v -0.769796 1.055977 0.539999
v 0.769796 1.055977 -0.539999
v -0.769796 1.055977 -0.539999
v 0.570457 1.055977 0.400166
v -0.570457 1.055977 0.400166
v 0.570457 1.055977 -0.400166
v -0.570457 1.055977 -0.400166
v 0.570457 1.178208 0.400166
v -0.570457 1.178208 0.400166
v 0.570457 1.178208 -0.400166
v -0.570457 1.178208 -0.400166
v 0.508071 1.178208 0.356403
v -0.508071 1.178208 0.356403
v 0.508071 1.178208 -0.356403
v -0.508071 1.178208 -0.356403
v -0.212353 1.322836 -0.107538
v -0.212353 1.054611 -0.107538
v -0.233333 1.322836 -0.105472
v -0.233333 1.054611 -0.105472
v -0.253506 1.322836 -0.099352
v -0.253506 1.054611 -0.099352
v -0.272098 1.322836 -0.089415
v -0.272098 1.054611 -0.089415
v -0.288394 1.322836 -0.076041
v -0.288394 1.054611 -0.076041
v -0.301768 1.322836 -0.059745
v -0.301768 1.054611 -0.059745
v -0.311705 1.322836 -0.041153
v -0.311705 1.054611 -0.041153
v -0.317825 1.322836 -0.020980
v -0.317825 1.054611 -0.020980
v -0.319891 1.322836 -0.000000
v -0.319891 1.054611 -0.000000
v -0.317825 1.322836 0.020980
v -0.317825 1.054611 0.020980
v -0.311705 1.322836 0.041153
v -0.311705 1.054611 0.041153
v -0.301768 1.322836 0.059745
v -0.301768 1.054611 0.059745
v -0.288394 1.322836 0.076041
v -0.288394 1.054611 0.076041
v -0.272098 1.322836 0.089415
v -0.272098 1.054611 0.089415
v -0.253506 1.322836 0.099352
v -0.253506 1.054611 0.099352
v -0.233333 1.322836 0.105472
v -0.233333 1.054611 0.105472
v -0.212353 1.322836 0.107538
v -0.212353 1.054611 0.107538
v -0.191373 1.322836 0.105472
v -0.191373 1.054611 0.105472
v -0.171200 1.322836 0.099352
v -0.171200 1.054611 0.099352
v -0.152608 1.322836 0.089415
v -0.152608 1.054611 0.089415
v -0.136312 1.322836 0.076041
v -0.136312 1.054611 0.076041
v -0.122938 1.322836 0.059745
v -0.122938 1.054611 0.059745
v -0.113001 1.322836 0.041153
v -0.113001 1.054611 0.041153
v -0.106881 1.322836 0.020980
v -0.106881 1.054611 0.020980
v -0.104815 1.322836 -0.000000
v -0.104815 1.054611 -0.000000
v -0.106881 1.322836 -0.020980
v -0.106881 1.054611 -0.020980
v -0.113001 1.322836 -0.041153
v -0.113001 1.054611 -0.041153
v -0.122938 1.322836 -0.059745
v -0.122939 1.054611 -0.059745
v -0.136312 1.322836 -0.076041
v -0.136312 1.054611 -0.076041
v -0.152608 1.322836 -0.089415
v -0.152608 1.054611 -0.089415
v -0.171200 1.322836 -0.099352
v -0.171200 1.054611 -0.099352
v -0.191374 1.322836 -0.105472
v -0.191374 1.054611 -0.105472
vt 0.568735 0.836675
vt 0.568735 0.898134
vt 0.563838 0.898134
vt 0.563838 0.836675
vt 0.559130 0.898134
vt 0.559130 0.836675
vt 0.554791 0.898134
vt 0.554791 0.836675
vt 0.550988 0.898134
vt 0.550988 0.836675
vt 0.657468 0.898134
vt 0.657468 0.836675
vt 0.661272 0.836675
vt 0.661272 0.898134
vt 0.665611 0.836675
vt 0.665611 0.898134
vt 0.670319 0.836675
vt 0.670319 0.898134
vt 0.675215 0.836675
vt 0.675215 0.898134
vt 0.680111 0.836675
vt 0.680111 0.898134
vt 0.684819 0.836675
vt 0.684819 0.898134
vt 0.689158 0.836675
vt 0.689158 0.898134
vt 0.692962 0.836675
vt 0.692962 0.898134
vt 0.444508 0.898134
vt 0.444508 0.836675
vt 0.448311 0.836675
vt 0.448311 0.898134
vt 0.452650 0.836675
vt 0.452650 0.898134
vt 0.457358 0.836675
vt 0.457358 0.898134
vt 0.462255 0.836675
vt 0.462255 0.898134
vt 0.467151 0.836675
vt 0.467151 0.898134
vt 0.471859 0.836675
vt 0.471859 0.898134
vt 0.476198 0.836675
vt 0.476198 0.898134
vt 0.480001 0.836675
vt 0.480001 0.898134
vt 0.586482 0.898134
vt 0.586482 0.836675
vt 0.590285 0.836675
vt 0.590285 0.898134
vt 0.594624 0.836675
vt 0.594624 0.898134
vt 0.599332 0.836675
vt 0.599332 0.898134
vt 0.604228 0.836675
vt 0.604228 0.898134
vt 0.609124 0.836675
vt 0.609125 0.898134
vt 0.613833 0.836675
vt 0.613833 0.898134
vt 0.618172 0.836675
vt 0.618172 0.898134
vt 0.621975 0.836675
vt 0.621975 0.898134
vt 0.586481 0.836675
vt 0.586481 0.898134
vt 0.582678 0.898134
vt 0.582678 0.836675
vt 0.578339 0.898134
vt 0.578339 0.836675
vt 0.573631 0.898134
vt 0.573631 0.836675
vt 0.359061 0.858782
vt 0.360021 0.854044
vt 0.361904 0.849582
vt 0.364637 0.845565
vt 0.368116 0.842150
vt 0.372207 0.839466
vt 0.376752 0.837618
vt 0.381578 0.836675
vt 0.386498 0.836675
vt 0.391323 0.837618
vt 0.395869 0.839466
vt 0.399959 0.842150
vt 0.403438 0.845565
vt 0.406172 0.849582
vt 0.408055 0.854044
vt 0.409014 0.858782
vt 0.409014 0.863612
vt 0.408055 0.868349
vt 0.406172 0.872812
vt 0.403438 0.876828
vt 0.399959 0.880244
vt 0.395869 0.882927
vt 0.391323 0.884776
vt 0.386498 0.885718
vt 0.381578 0.885718
vt 0.376752 0.884776
vt 0.372207 0.882927
vt 0.368116 0.880244
vt 0.364637 0.876828
vt 0.361904 0.872812
vt 0.360021 0.868349
vt 0.359061 0.863612
vt 0.922519 0.745327
vt 0.922520 0.978154
vt 0.756162 0.978154
vt 0.756162 0.745327
vt 0.000000 0.483910
vt 0.000000 0.000000
vt 0.359316 0.000000
vt 0.359316 0.483910
vt 0.718632 0.483910
vt 0.718632 0.000000
vt 0.970686 0.000000
vt 0.970686 0.483910
vt 0.504108 0.836675
vt 0.504108 0.483910
vt 0.756162 0.483910
vt 0.756162 0.836675
vt 0.252054 0.483910
vt 0.252054 0.967820
vt 0.000000 0.967820
vt 0.718632 0.000000
vt 0.718632 0.483910
vt 0.359316 0.483910
vt 0.359316 0.000000
vt 0.284689 0.529584
vt 0.284689 0.791001
vt 0.252054 0.836675
vt 0.252054 0.483910
vt 0.471473 0.529584
vt 0.504108 0.483910
vt 0.471473 0.791001
vt 0.504108 0.836675
vt 0.309107 0.836675
vt 0.309107 1.000000
vt 0.280581 1.000000
vt 0.280581 0.836675
vt 0.970686 0.261416
vt 0.970686 0.000000
vt 0.999213 0.000000
vt 0.999213 0.261416
vt 0.971473 0.949566
vt 0.971473 0.716738
vt 1.000000 0.716738
vt 1.000000 0.949566
vt 0.999213 0.261416
vt 0.999213 0.444796
vt 0.970686 0.444796
vt 0.970686 0.261416
vt 0.766375 0.498204
vt 0.766375 0.731032
vt 0.756162 0.745327
vt 0.756162 0.483910
vt 0.932733 0.498204
vt 0.942946 0.483910
vt 0.932733 0.731032
vt 0.942946 0.745326
vt 0.971473 0.483910
vt 0.971473 0.745327
vt 0.971473 0.745327
vt 0.971473 0.928706
vt 0.942946 0.928706
vt 0.942946 0.745327
vt 0.280581 0.836675
vt 0.280581 1.000000
vt 0.252054 1.000000
vt 0.252054 0.836675
vt 1.000000 0.483910
vt 1.000000 0.716738
vt 0.971473 0.716738
vt 0.971473 0.483910
vt 0.533241 0.836675
vt 0.533241 0.898134
vt 0.528345 0.898134
vt 0.528345 0.836675
vt 0.523637 0.898134
vt 0.523637 0.836675
vt 0.519298 0.898134
vt 0.519298 0.836675
vt 0.515495 0.898134
vt 0.515495 0.836675
vt 0.621975 0.898134
vt 0.621975 0.836675
vt 0.625778 0.836675
vt 0.625778 0.898134
vt 0.630117 0.836675
vt 0.630117 0.898134
vt 0.634825 0.836675
vt 0.634825 0.898134
vt 0.639722 0.836675
vt 0.639722 0.898134
vt 0.644618 0.836675
vt 0.644618 0.898134
vt 0.649326 0.836675
vt 0.649326 0.898134
vt 0.653665 0.836675
vt 0.653665 0.898134
vt 0.657468 0.836675
vt 0.657468 0.898134
vt 0.409014 0.898134
vt 0.409014 0.836675
vt 0.412818 0.836675
vt 0.412818 0.898134
vt 0.417157 0.836675
vt 0.417157 0.898134
vt 0.421865 0.836675
vt 0.421865 0.898134
vt 0.426761 0.836675
vt 0.426761 0.898134
vt 0.431657 0.836675
vt 0.431657 0.898134
vt 0.436366 0.836675
vt 0.436366 0.898134
vt 0.440705 0.836675
vt 0.440705 0.898134
vt 0.444508 0.836675
vt 0.444508 0.898134
vt 0.480001 0.898134
vt 0.480001 0.836675
vt 0.483804 0.836675
vt 0.483804 0.898134
vt 0.488144 0.836675
vt 0.488144 0.898134
vt 0.492852 0.836675
vt 0.492852 0.898134
vt 0.497748 0.836675
vt 0.497748 0.898134
vt 0.502644 0.836675
vt 0.502644 0.898134
vt 0.507352 0.836675
vt 0.507352 0.898134
vt 0.511691 0.836675
vt 0.511692 0.898134
vt 0.515495 0.836675
vt 0.515495 0.898134
vt 0.550988 0.836675
vt 0.550988 0.898134
vt 0.547185 0.898134
vt 0.547185 0.836675
vt 0.542846 0.898134
vt 0.542846 0.836675
vt 0.538138 0.898134
vt 0.538138 0.836675
vt 0.326799 0.884776
vt 0.322253 0.882927
vt 0.318162 0.880244
vt 0.314683 0.876828
vt 0.311950 0.872812
vt 0.310067 0.868349
vt 0.309107 0.863612
vt 0.309107 0.858782
vt 0.310067 0.854044
vt 0.311950 0.849582
vt 0.314683 0.845565
vt 0.318162 0.842150
vt 0.322253 0.839466
vt 0.326799 0.837618
vt 0.331624 0.836675
vt 0.336544 0.836675
vt 0.341370 0.837618
vt 0.345915 0.839466
vt 0.350006 0.842150
vt 0.353485 0.845565
vt 0.356218 0.849582
vt 0.358101 0.854044
vt 0.359061 0.858782
vt 0.359061 0.863612
vt 0.358101 0.868349
vt 0.356218 0.872812
vt 0.353485 0.876828
vt 0.350006 0.880244
vt 0.345915 0.882927
vt 0.341370 0.884776
vt 0.336544 0.885718
vt 0.331624 0.885718
vn 0.0000 0.6857 -0.7279
vn 0.0000 0.0000 -1.0000
vn -0.1951 0.0000 -0.9808
vn -0.1420 0.6857 -0.7139
vn -0.3827 0.0000 -0.9239
vn -0.2785 0.6857 -0.6725
vn -0.5556 0.0000 -0.8314
vn -0.4044 0.6857 -0.6052
vn -0.7071 0.0000 -0.7071
vn -0.5147 0.6857 -0.5147
vn -0.8314 0.0000 -0.5556
vn -0.6052 0.6857 -0.4044
vn -0.9239 0.0000 -0.3827
vn -0.6725 0.6857 -0.2785
vn -0.9808 0.0000 -0.1951
vn -0.7139 0.6857 -0.1420
vn -1.0000 0.0000 0.0000
vn -0.7279 0.6857 0.0000
vn -0.9808 0.0000 0.1951
vn -0.7139 0.6857 0.1420
vn -0.9239 0.0000 0.3827
vn -0.6725 0.6857 0.2785
vn -0.8314 0.0000 0.5556
vn -0.6052 0.6857 0.4044
vn -0.7071 0.0000 0.7071
vn -0.5147 0.6857 0.5147
vn -0.5556 0.0000 0.8314
vn -0.4044 0.6857 0.6052
vn -0.3827 0.0000 0.9239
vn -0.2785 0.6857 0.6725
vn -0.1951 0.0000 0.9808
vn -0.1420 0.6857 0.7139
vn 0.0000 0.0000 1.0000
vn 0.0000 0.6857 0.7279
vn 0.1951 0.0000 0.9808
vn 0.1420 0.6857 0.7139
vn 0.3827 0.0000 0.9239
vn 0.2785 0.6857 0.6725
vn 0.5556 0.0000 0.8314
vn 0.4044 0.6857 0.6052
vn 0.7071 0.0000 0.7071
vn 0.5147 0.6857 0.5147
vn 0.8314 0.0000 0.5556
vn 0.6052 0.6857 0.4044
vn 0.9239 0.0000 0.3827
vn 0.6725 0.6857 0.2785
vn 0.9808 0.0000 0.1951
vn 0.7139 0.6857 0.1420
vn 1.0000 0.0000 0.0000
vn 0.7279 0.6857 0.0000
vn 0.9808 0.0000 -0.1951
vn 0.7139 0.6857 -0.1420
vn 0.9239 0.0000 -0.3827
vn 0.6725 0.6857 -0.2785
vn 0.8314 0.0000 -0.5556
vn 0.6052 0.6857 -0.4044
vn 0.7071 0.0000 -0.7071
vn 0.5147 0.6857 -0.5147
vn 0.5556 0.0000 -0.8314
vn 0.4044 0.6857 -0.6052
vn 0.3827 0.0000 -0.9239
vn 0.2785 0.6857 -0.6725
vn 0.1951 0.0000 -0.9808
vn 0.1420 0.6857 -0.7139
vn -0.5773 0.5773 0.5773
vn 0.5773 0.5773 0.5773
vn 0.5773 0.5773 -0.5773
vn -0.5773 0.5773 -0.5773
vn 0.5773 -0.5773 0.5773
vn -0.5773 -0.5773 0.5773
vn -0.5773 -0.5773 -0.5773
vn 0.5773 -0.5773 -0.5773
vn 0.3015 0.9045 0.3015
vn -0.3015 0.9045 0.3015
vn 0.3015 0.9045 -0.3015
vn -0.3015 0.9045 -0.3015
usemtl Material
s 1
f 1/1/1 2/2/2 4/3/3 3/4/4
f 3/4/4 4/3/3 6/5/5 5/6/6
f 5/6/6 6/5/5 8/7/7 7/8/8
f 7/8/8 8/7/7 10/9/9 9/10/10
f 9/11/10 10/12/9 12/13/11 11/14/12
f 11/14/12 12/13/11 14/15/13 13/16/14
f 13/16/14 14/15/13 16/17/15 15/18/16
f 15/18/16 16/17/15 18/19/17 17/20/18
f 17/20/18 18/19/17 20/21/19 19/22/20
f 19/22/20 20/21/19 22/23/21 21/24/22
f 21/24/22 22/23/21 24/25/23 23/26/24
f 23/26/24 24/25/23 26/27/25 25/28/26
f 25/29/26 26/30/25 28/31/27 27/32/28
f 27/32/28 28/31/27 30/33/29 29/34/30
f 29/34/30 30/33/29 32/35/31 31/36/32
f 31/36/32 32/35/31 34/37/33 33/38/34
f 33/38/34 34/37/33 36/39/35 35/40/36
f 35/40/36 36/39/35 38/41/37 37/42/38
f 37/42/38 38/41/37 40/43/39 39/44/40
f 39/44/40 40/43/39 42/45/41 41/46/42
f 41/47/42 42/48/41 44/49/43 43/50/44
f 43/50/44 44/49/43 46/51/45 45/52/46
f 45/52/46 46/51/45 48/53/47 47/54/48
f 47/54/48 48/53/47 50/55/49 49/56/50
f 49/56/50 50/55/49 52/57/51 51/58/52
f 51/58/52 52/57/51 54/59/53 53/60/54
f 53/60/54 54/59/53 56/61/55 55/62/56
f 55/62/56 56/61/55 58/63/57 57/64/58
f 57/65/58 58/66/57 60/67/59 59/68/60
f 59/68/60 60/67/59 62/69/61 61/70/62
f 61/70/62 62/69/61 64/71/63 63/72/64
f 63/72/64 64/71/63 2/2/2 1/1/1
f 1/73/1 3/74/4 5/75/6 7/76/8 9/77/10 11/78/12 13/79/14 15/80/16 17/81/18 19/82/20 21/83/22 23/84/24 25/85/26 27/86/28 29/87/30 31/88/32 33/89/34 35/90/36 37/91/38 39/92/40 41/93/42 43/94/44 45/95/46 47/96/48 49/97/50 51/98/52 53/99/54 55/100/56 57/101/58 59/102/60 61/103/62 63/104/64
f 65/105/65 69/106/66 71/107/67 67/108/68
f 68/109/69 73/110/66 74/111/65 72/112/70
f 72/113/70 74/114/65 76/115/68 70/116/71
f 70/117/71 66/118/72 68/119/69 72/120/70
f 66/121/72 75/122/67 73/123/66 68/109/69
f 70/124/71 76/125/68 75/126/67 66/127/72
f 77/128/73 78/129/74 74/130/65 73/131/66
f 79/132/75 77/128/73 73/131/66 75/133/67
f 78/129/74 80/134/76 76/135/68 74/130/65
f 80/134/76 79/132/75 75/133/67 76/135/68
f 65/136/65 67/137/68 85/138/76 87/139/74
f 78/140/74 77/141/73 81/142/66 82/143/65
f 69/144/66 65/145/65 87/146/74 88/147/73
f 80/148/76 78/149/74 82/150/65 84/151/68
f 85/152/76 86/153/75 82/154/65 81/155/66
f 87/156/74 85/152/76 81/155/66 83/157/67
f 86/153/75 88/158/73 84/159/68 82/154/65
f 88/158/73 87/156/74 83/157/67 84/159/68
f 79/160/75 80/161/76 84/159/68 83/157/67
f 77/162/73 79/163/75 83/164/67 81/165/66
f 71/166/67 69/167/66 88/168/73 86/169/75
f 67/170/68 71/171/67 86/172/75 85/173/76
f 89/174/1 90/175/2 92/176/3 91/177/4
f 91/177/4 92/176/3 94/178/5 93/179/6
f 93/179/6 94/178/5 96/180/7 95/181/8
f 95/181/8 96/180/7 98/182/9 97/183/10
f 97/184/10 98/185/9 100/186/11 99/187/12
f 99/187/12 100/186/11 102/188/13 101/189/14
f 101/189/14 102/188/13 104/190/15 103/191/16
f 103/191/16 104/190/15 106/192/17 105/193/18
f 105/193/18 106/192/17 108/194/19 107/195/20
f 107/195/20 108/194/19 110/196/21 109/197/22
f 109/197/22 110/196/21 112/198/23 111/199/24
f 111/199/24 112/198/23 114/200/25 113/201/26
f 113/202/26 114/203/25 116/204/27 115/205/28
f 115/205/28 116/204/27 118/206/29 117/207/30
f 117/207/30 118/206/29 120/208/31 119/209/32
f 119/209/32 120/208/31 122/210/33 121/211/34
f 121/211/34 122/210/33 124/212/35 123/213/36
f 123/213/36 124/212/35 126/214/37 125/215/38
f 125/215/38 126/214/37 128/216/39 127/217/40
f 127/217/40 128/216/39 130/218/41 129/219/42
f 129/220/42 130/221/41 132/222/43 131/223/44
f 131/223/44 132/222/43 134/224/45 133/225/46
f 133/225/46 134/224/45 136/226/47 135/227/48
f 135/227/48 136/226/47 138/228/49 137/229/50
f 137/229/50 138/228/49 140/230/51 139/231/52
f 139/231/52 140/230/51 142/232/53 141/233/54
f 141/233/54 142/232/53 144/234/55 143/235/56
f 143/235/56 144/234/55 146/236/57 145/237/58
f 145/238/58 146/239/57 148/240/59 147/241/60
f 147/241/60 148/240/59 150/242/61 149/243/62
f 149/243/62 150/242/61 152/244/63 151/245/64
f 151/245/64 152/244/63 90/175/2 89/174/1
f 89/246/1 91/247/4 93/248/6 95/249/8 97/250/10 99/251/12 101/252/14 103/253/16 105/254/18 107/255/20 109/256/22 111/257/24 113/258/26 115/259/28 117/260/30 119/261/32 121/262/34 123/263/36 125/264/38 127/265/40 129/266/42 131/267/44 133/268/46 135/269/48 137/270/50 139/271/52 141/272/54 143/273/56 145/274/58 147/275/60 149/276/62 151/277/64
