# Blender v2.90.1 OBJ File: 'gem.blend'
# www.blender.org
mtllib gem.mtl
o dobj_dmesh
v 1.000000 0.000000 0.000000
v 0.923880 0.000000 -0.382683
v 0.707107 0.000000 -0.707107
v 0.382683 0.000000 -0.923880
v -0.000000 0.000000 -1.000000
v -0.382683 0.000000 -0.923880
v -0.707107 0.000000 -0.707107
v -0.923880 0.000000 -0.382683
v -1.000000 0.000000 0.000000
v -0.923880 0.000000 0.382683
v -0.707107 0.000000 0.707107
v -0.382684 0.000000 0.923880
v 0.000000 0.000000 1.000000
v 0.382684 0.000000 0.923879
v 0.707107 0.000000 0.707107
v 0.923880 0.000000 0.382683
v 1.000000 0.034000 0.000000
v 0.923880 0.034000 -0.382683
v 0.707107 0.034000 -0.707107
v 0.382683 0.034000 -0.923880
v -0.000000 0.034000 -1.000000
v -0.382683 0.034000 -0.923880
v -0.707107 0.034000 -0.707107
v -0.923880 0.034000 -0.382683
v -1.000000 0.034000 0.000000
v -0.923880 0.034000 0.382683
v -0.707107 0.034000 0.707107
v -0.382684 0.034000 0.923880
v 0.000000 0.034000 1.000000
v 0.382684 0.034000 0.923879
v 0.707107 0.034000 0.707107
v 0.923880 0.034000 0.382683
v 0.980785 0.017869 -0.195090
v 0.831470 0.017869 -0.555570
v 0.555570 0.017869 -0.831470
v 0.195090 0.017869 -0.980785
v -0.195090 0.017869 -0.980785
v -0.555570 0.017869 -0.831470
v -0.831470 0.017869 -0.555570
v -0.980785 0.017869 -0.195090
v -0.980785 0.017869 0.195090
v -0.831470 0.017869 0.555570
v -0.555570 0.017869 0.831469
v -0.195090 0.017869 0.980785
v 0.195090 0.017869 0.980785
v 0.555570 0.017869 0.831470
v 0.831470 0.017869 0.555570
v 0.980785 0.017869 0.195090
v 0.980785 0.018086 -0.195090
v 0.831470 0.018086 -0.555570
v 0.555570 0.018086 -0.831470
v 0.195090 0.018086 -0.980785
v -0.195090 0.018086 -0.980785
v -0.555570 0.018086 -0.831470
v -0.831470 0.018086 -0.555570
v -0.980785 0.018086 -0.195090
v -0.980785 0.018086 0.195090
v -0.831470 0.018086 0.555570
v -0.555570 0.018086 0.831469
v -0.195090 0.018086 0.980785
v 0.195090 0.018086 0.980785
v 0.555570 0.018086 0.831470
v 0.831470 0.018086 0.555570
v 0.980785 0.018086 0.195090
v 0.995185 0.013456 -0.098017
v 0.956940 0.013456 -0.290285
v 0.881921 0.013456 -0.471397
v 0.773010 0.013456 -0.634393
v 0.634393 0.013456 -0.773010
v 0.471397 0.013456 -0.881921
v 0.290285 0.013456 -0.956940
v 0.098017 0.013456 -0.995185
v -0.098017 0.013456 -0.995185
v -0.290285 0.013456 -0.956940
v -0.471397 0.013456 -0.881921
v -0.634393 0.013456 -0.773010
v -0.773010 0.013456 -0.634393
v -0.881921 0.013456 -0.471397
v -0.956940 0.013456 -0.290285
v -0.995185 0.013456 -0.098017
v -0.995185 0.013456 0.098017
v -0.956940 0.013456 0.290285
v -0.881921 0.013456 0.471397
v -0.773011 0.013456 0.634393
v -0.634393 0.013456 0.773010
v -0.471397 0.013456 0.881921
v -0.290285 0.013456 0.956940
v -0.098017 0.013456 0.995185
v 0.098017 0.013456 0.995185
v 0.290285 0.013456 0.956940
v 0.471397 0.013456 0.881921
v 0.634393 0.013456 0.773010
v 0.773011 0.013456 0.634393
v 0.881921 0.013456 0.471397
v 0.956940 0.013456 0.290285
v 0.995185 0.013456 0.098017
v 0.995185 0.022016 -0.098017
v 0.956940 0.022016 -0.290285
v 0.881921 0.022016 -0.471397
v 0.773010 0.022016 -0.634393
v 0.634393 0.022016 -0.773010
v 0.471397 0.022016 -0.881921
v 0.290285 0.022016 -0.956940
v 0.098017 0.022016 -0.995185
v -0.098017 0.022016 -0.995185
v -0.290285 0.022016 -0.956940
v -0.471397 0.022016 -0.881921
v -0.634393 0.022016 -0.773010
v -0.773010 0.022016 -0.634393
v -0.881921 0.022016 -0.471397
v -0.956940 0.022016 -0.290285
v -0.995185 0.022016 -0.098017
v -0.995185 0.022016 0.098017
v -0.956940 0.022016 0.290285
v -0.881921 0.022016 0.471397
v -0.773011 0.022016 0.634393
v -0.634393 0.022016 0.773010
v -0.471397 0.022016 0.881921
v -0.290285 0.022016 0.956940
v -0.098017 0.022016 0.995185
v 0.098017 0.022016 0.995185
v 0.290285 0.022016 0.956940
v 0.471397 0.022016 0.881921
v 0.634393 0.022016 0.773010
v 0.773011 0.022016 0.634393
v 0.881921 0.022016 0.471397
v 0.956940 0.022016 0.290285
v 0.995185 0.022016 0.098017
v 0.647500 0.277000 -0.268203
v 0.268203 0.277000 -0.647500
v -0.268203 0.277000 -0.647500
v -0.647500 0.277000 -0.268203
v -0.647500 0.277000 0.268203
v -0.268203 0.277000 0.647500
v 0.268203 0.277000 0.647500
v 0.647500 0.277000 0.268203
v 0.530000 0.358000 0.000000
v 0.374767 0.358000 -0.374767
v -0.000000 0.358000 -0.530000
v -0.374767 0.358000 -0.374767
v -0.530000 0.358000 0.000000
v -0.374767 0.358000 0.374767
v 0.000000 0.358000 0.530000
v 0.374766 0.358000 0.374767
v 0.400000 -0.517200 -0.165685
v 0.165685 -0.517200 -0.400000
v -0.165685 -0.517200 -0.400000
v -0.400000 -0.517200 -0.165685
v -0.400000 -0.517200 0.165685
v -0.165685 -0.517200 0.400000
v 0.165686 -0.517200 0.400000
v 0.400000 -0.517200 0.165685
v 0.000000 -0.862000 0.000000
vt 0.717500 0.827006
vt 0.720876 0.798358
vt 0.723024 0.798358
vt 0.726031 0.827006
vt 0.723024 0.854663
vt 0.720876 0.854663
vt 0.717500 0.709269
vt 0.720876 0.679477
vt 0.723024 0.679477
vt 0.726031 0.709269
vt 0.723024 0.739205
vt 0.720876 0.739205
vt 0.717500 0.593811
vt 0.720876 0.567409
vt 0.723024 0.567409
vt 0.726031 0.593811
vt 0.723024 0.621468
vt 0.720876 0.621468
vt 0.954504 0.504895
vt 0.940699 0.518432
vt 0.939057 0.516748
vt 0.947983 0.498209
vt 0.717500 0.498209
vt 0.726031 0.498209
vt 0.723024 0.519377
vt 0.720876 0.519377
vt 0.903813 0.577981
vt 0.886566 0.596478
vt 0.884924 0.594795
vt 0.897291 0.571294
vt 0.913589 0.553468
vt 0.915231 0.555151
vt 0.842592 0.666246
vt 0.824138 0.686485
vt 0.822496 0.684801
vt 0.836071 0.659559
vt 0.854166 0.639141
vt 0.855808 0.640824
vt 0.780164 0.756252
vt 0.762918 0.774750
vt 0.761276 0.773066
vt 0.773642 0.749566
vt 0.791131 0.730023
vt 0.792773 0.731706
vt 0.262582 0.954272
vt 0.252799 0.932024
vt 0.254504 0.930435
vt 0.269350 0.947959
vt 0.278550 0.968545
vt 0.276845 0.970135
vt 0.208716 0.868900
vt 0.196696 0.843105
vt 0.198400 0.841516
vt 0.215485 0.862587
vt 0.227441 0.887542
vt 0.225736 0.889131
vt 0.149201 0.774574
vt 0.137181 0.748779
vt 0.138885 0.747190
vt 0.155970 0.768261
vt 0.168499 0.794125
vt 0.166795 0.795714
vt 0.093098 0.685655
vt 0.083315 0.663407
vt 0.085020 0.661818
vt 0.099867 0.679342
vt 0.110698 0.702515
vt 0.108994 0.704105
vt 0.507759 0.206877
vt 0.510983 0.236692
vt 0.509817 0.237442
vt 0.503130 0.209854
vt 0.048947 0.615680
vt 0.055716 0.609367
vt 0.062838 0.626661
vt 0.061133 0.628250
vt 0.539342 0.318633
vt 0.549856 0.345697
vt 0.548690 0.346447
vt 0.534713 0.321610
vt 0.525685 0.293590
vt 0.526851 0.292841
vt 0.597578 0.413242
vt 0.613503 0.433614
vt 0.612337 0.434364
vt 0.592949 0.416220
vt 0.577949 0.393980
vt 0.579115 0.393230
vt 0.717500 1.000000
vt 0.720876 0.985888
vt 0.723024 0.985888
vt 0.726031 1.000000
vt 0.673601 0.476300
vt 0.668972 0.479278
vt 0.650532 0.466046
vt 0.651698 0.465296
vt 0.717500 0.929097
vt 0.720876 0.905956
vt 0.723024 0.905956
vt 0.726031 0.929097
vt 0.723024 0.950265
vt 0.720876 0.950265
vt 0.721984 0.768997
vt 0.722038 0.768997
vt 0.721984 0.650116
vt 0.722038 0.650116
vt 0.721984 0.542518
vt 0.722038 0.542518
vt 0.927582 0.535255
vt 0.927541 0.535212
vt 0.870530 0.617510
vt 0.870488 0.617468
vt 0.807494 0.708393
vt 0.807453 0.708350
vt 0.748072 0.794065
vt 0.748030 0.794023
vt 0.735720 0.813962
vt 0.734078 0.812278
vt 0.240461 0.910257
vt 0.240504 0.910216
vt 0.182660 0.818647
vt 0.182703 0.818607
vt 0.123718 0.725230
vt 0.123761 0.725190
vt 0.072609 0.644227
vt 0.072652 0.644186
vt 0.517379 0.265431
vt 0.517349 0.265450
vt 0.563168 0.370635
vt 0.563138 0.370654
vt 0.631612 0.451014
vt 0.631583 0.451033
vt 0.721984 0.969256
vt 0.722038 0.969256
vt 0.721984 0.881065
vt 0.722038 0.881065
vt 0.213792 0.606433
vt 0.293336 0.512071
vt 0.311574 0.600593
vt 0.287424 0.606433
vt 0.262919 0.609367
vt 0.238296 0.609367
vt 0.400075 0.549703
vt 0.379601 0.566335
vt 0.357886 0.580447
vt 0.335137 0.591903
vt 0.121614 0.566335
vt 0.101141 0.549703
vt 0.082107 0.530712
vt 0.064696 0.509544
vt 0.049075 0.486403
vt 0.160203 0.488062
vt 0.189642 0.600593
vt 0.166079 0.591903
vt 0.143330 0.580447
vt 0.007217 0.378805
vt 0.002413 0.349444
vt 0.000000 0.319652
vt 0.000000 0.289716
vt 0.002413 0.259923
vt 0.080028 0.356632
vt 0.035395 0.461511
vt 0.023788 0.435110
vt 0.014365 0.407452
vt 0.035395 0.147856
vt 0.049075 0.122965
vt 0.064696 0.099824
vt 0.082107 0.078656
vt 0.101141 0.059664
vt 0.099776 0.194771
vt 0.007217 0.230562
vt 0.014365 0.201915
vt 0.023788 0.174258
vt 0.189642 0.008775
vt 0.213792 0.002934
vt 0.238296 0.000000
vt 0.262919 0.000000
vt 0.287424 0.002934
vt 0.207880 0.097296
vt 0.121614 0.043033
vt 0.143330 0.028921
vt 0.166079 0.017465
vt 0.379601 0.043033
vt 0.400075 0.059664
vt 0.419109 0.078656
vt 0.436520 0.099824
vt 0.452141 0.122965
vt 0.341013 0.121306
vt 0.311574 0.008775
vt 0.335137 0.017465
vt 0.357886 0.028921
vt 0.493999 0.230562
vt 0.498802 0.259923
vt 0.501216 0.289716
vt 0.501216 0.319652
vt 0.498802 0.349444
vt 0.421188 0.252736
vt 0.465821 0.147856
vt 0.477428 0.174257
vt 0.486851 0.201915
vt 0.465821 0.461511
vt 0.452141 0.486402
vt 0.436520 0.509543
vt 0.419109 0.530712
vt 0.401440 0.414596
vt 0.493999 0.378805
vt 0.486851 0.407452
vt 0.477428 0.435110
vt 0.231095 0.464611
vt 0.143795 0.400995
vt 0.119065 0.280961
vt 0.171390 0.174823
vt 0.270120 0.144757
vt 0.357420 0.208373
vt 0.382151 0.328407
vt 0.329825 0.434544
vt 0.587730 0.717756
vt 0.831766 0.475632
vt 0.812209 0.486552
vt 0.792924 0.493989
vt 0.774061 0.497895
vt 0.755837 0.498209
vt 0.802759 0.287217
vt 0.587730 0.626377
vt 0.937298 0.774442
vt 0.985752 0.704585
vt 0.886833 0.847202
vt 0.726031 0.834299
vt 0.058942 0.890740
vt 0.108031 0.968542
vt 0.507637 0.094988
vt 0.695353 0.161082
vt 0.502862 0.179410
vt 0.501216 0.151418
vt 0.502801 0.123195
vt 0.510801 0.070207
vt 0.517140 0.045954
vt 0.526556 0.022483
vt 0.538995 0.000000
vt 0.708876 0.071514
vt 0.734240 0.250429
vt 0.733550 0.498066
vt 0.712292 0.494330
vt 0.692233 0.487059
vt 0.587730 0.812932
vt 0.501216 0.724237
vt 1.000000 0.847202
vt 0.000000 0.970135
vt 0.831766 0.130505
vn 0.9988 0.0000 -0.0491
vn 0.9988 0.0000 0.0491
vn 0.9040 0.0000 -0.4276
vn 0.9415 0.0000 -0.3369
vn 0.6716 0.0000 -0.7410
vn 0.7410 0.0000 -0.6716
vn 0.3369 0.0000 -0.9415
vn 0.4276 0.0000 -0.9040
vn -0.0491 0.0000 -0.9988
vn 0.0491 0.0000 -0.9988
vn -0.4276 0.0000 -0.9040
vn -0.3369 0.0000 -0.9415
vn -0.7410 0.0000 -0.6716
vn -0.6716 0.0000 -0.7410
vn -0.9415 0.0000 -0.3369
vn -0.9040 0.0000 -0.4276
vn -0.9988 0.0000 0.0491
vn -0.9988 0.0000 -0.0491
vn -0.9040 0.0000 0.4276
vn -0.9415 0.0000 0.3369
vn -0.6716 0.0000 0.7410
vn -0.7410 0.0000 0.6716
vn -0.3369 0.0000 0.9415
vn -0.4276 0.0000 0.9040
vn 0.0491 0.0000 0.9988
vn -0.0491 0.0000 0.9988
vn 0.4276 0.0000 0.9040
vn 0.3369 0.0000 0.9415
vn 0.7410 0.0000 0.6716
vn 0.6716 0.0000 0.7410
vn 0.9415 0.0000 0.3369
vn 0.9040 0.0000 0.4276
vn 0.9892 0.0000 -0.1467
vn 0.9700 0.0000 -0.2430
vn 0.8577 0.0000 -0.5141
vn 0.8032 0.0000 -0.5957
vn 0.5957 0.0000 -0.8032
vn 0.5141 0.0000 -0.8577
vn 0.2430 0.0000 -0.9700
vn 0.1467 0.0000 -0.9892
vn -0.1467 0.0000 -0.9892
vn -0.2430 0.0000 -0.9700
vn -0.5141 0.0000 -0.8577
vn -0.5957 0.0000 -0.8032
vn -0.8032 0.0000 -0.5957
vn -0.8577 0.0000 -0.5141
vn -0.9700 0.0000 -0.2430
vn -0.9892 0.0000 -0.1467
vn -0.9892 0.0000 0.1467
vn -0.9700 0.0000 0.2430
vn -0.8577 0.0000 0.5141
vn -0.8032 0.0000 0.5957
vn -0.5957 0.0000 0.8032
vn -0.5141 0.0000 0.8577
vn -0.2430 0.0000 0.9700
vn -0.1467 0.0000 0.9892
vn 0.1467 0.0000 0.9892
vn 0.2430 0.0000 0.9700
vn 0.5141 0.0000 0.8577
vn 0.5957 0.0000 0.8032
vn 0.8032 0.0000 0.5957
vn 0.8577 0.0000 0.5141
vn 0.9700 0.0000 0.2430
vn 0.9892 0.0000 0.1467
vn 0.6257 0.7701 0.1245
vn 0.5304 0.7701 0.3544
vn 0.5304 0.7701 -0.3544
vn 0.6257 0.7701 -0.1245
vn 0.1245 0.7701 -0.6257
vn 0.3544 0.7701 -0.5304
vn -0.3544 0.7701 -0.5304
vn -0.1245 0.7701 -0.6257
vn -0.6257 0.7701 -0.1245
vn -0.5304 0.7701 -0.3544
vn -0.5304 0.7701 0.3544
vn -0.6257 0.7701 0.1245
vn -0.1245 0.7701 0.6257
vn -0.3544 0.7701 0.5304
vn 0.3544 0.7701 0.5304
vn 0.1245 0.7701 0.6257
vn 0.3308 0.9337 -0.1370
vn 0.4013 0.8233 -0.4013
vn 0.1370 0.9337 -0.3308
vn 0.0000 0.8233 -0.5676
vn -0.1370 0.9337 -0.3308
vn -0.4013 0.8233 -0.4013
vn -0.3308 0.9337 -0.1370
vn -0.5676 0.8233 0.0000
vn -0.3308 0.9337 0.1370
vn -0.4013 0.8233 0.4013
vn -0.1370 0.9337 0.3308
vn 0.0000 0.8233 0.5676
vn 0.1370 0.9337 0.3308
vn 0.4013 0.8233 0.4013
vn 0.3308 0.9337 0.1370
vn 0.5676 0.8233 -0.0000
vn 0.0000 1.0000 -0.0000
vn 0.6680 -0.7322 -0.1329
vn 0.6680 -0.7322 0.1329
vn 0.3784 -0.7322 -0.5663
vn 0.5663 -0.7322 -0.3784
vn -0.1329 -0.7322 -0.6680
vn 0.1329 -0.7322 -0.6680
vn -0.5663 -0.7322 -0.3784
vn -0.3784 -0.7322 -0.5663
vn -0.6680 -0.7322 0.1329
vn -0.6680 -0.7322 -0.1329
vn -0.3784 -0.7322 0.5663
vn -0.5663 -0.7322 0.3784
vn 0.1329 -0.7322 0.6680
vn -0.1329 -0.7322 0.6680
vn 0.5663 -0.7322 0.3784
vn 0.3784 -0.7322 0.5663
vn 0.6529 -0.7574 -0.0000
vn 0.4617 -0.7574 -0.4617
vn 0.0000 -0.7574 -0.6529
vn -0.4617 -0.7574 -0.4617
vn -0.6529 -0.7574 0.0000
vn -0.4617 -0.7574 0.4617
vn 0.0000 -0.7574 0.6529
vn 0.4617 -0.7574 0.4617
usemtl Material.001
s off
f 1/1/1 65/2/1 97/3/1 17/4/1
f 1/1/2 17/4/2 128/5/2 96/6/2
f 2/7/3 67/8/3 99/9/3 18/10/3
f 2/7/4 18/10/4 98/11/4 66/12/4
f 3/13/5 69/14/5 101/15/5 19/16/5
f 3/13/6 19/16/6 100/17/6 68/18/6
f 4/19/7 71/20/7 103/21/7 20/22/7
f 4/23/8 20/24/8 102/25/8 70/26/8
f 5/27/9 73/28/9 105/29/9 21/30/9
f 5/27/10 21/30/10 104/31/10 72/32/10
f 6/33/11 75/34/11 107/35/11 22/36/11
f 6/33/12 22/36/12 106/37/12 74/38/12
f 7/39/13 77/40/13 109/41/13 23/42/13
f 7/39/14 23/42/14 108/43/14 76/44/14
f 8/45/15 79/46/15 111/47/15 24/48/15
f 8/45/16 24/48/16 110/49/16 78/50/16
f 9/51/17 81/52/17 113/53/17 25/54/17
f 9/51/18 25/54/18 112/55/18 80/56/18
f 10/57/19 83/58/19 115/59/19 26/60/19
f 10/57/20 26/60/20 114/61/20 82/62/20
f 11/63/21 85/64/21 117/65/21 27/66/21
f 11/63/22 27/66/22 116/67/22 84/68/22
f 12/69/23 87/70/23 119/71/23 28/72/23
f 12/73/24 28/74/24 118/75/24 86/76/24
f 13/77/25 89/78/25 121/79/25 29/80/25
f 13/77/26 29/80/26 120/81/26 88/82/26
f 14/83/27 91/84/27 123/85/27 30/86/27
f 14/83/28 30/86/28 122/87/28 90/88/28
f 15/89/29 93/90/29 125/91/29 31/92/29
f 15/93/30 31/94/30 124/95/30 92/96/30
f 16/97/31 95/98/31 127/99/31 32/100/31
f 16/97/32 32/100/32 126/101/32 94/102/32
f 33/103/33 49/104/33 97/3/33 65/2/33
f 33/103/34 66/12/34 98/11/34 49/104/34
f 34/105/35 50/106/35 99/9/35 67/8/35
f 34/105/36 68/18/36 100/17/36 50/106/36
f 35/107/37 51/108/37 101/15/37 69/14/37
f 35/107/38 70/26/38 102/25/38 51/108/38
f 36/109/39 52/110/39 103/21/39 71/20/39
f 36/109/40 72/32/40 104/31/40 52/110/40
f 37/111/41 53/112/41 105/29/41 73/28/41
f 37/111/42 74/38/42 106/37/42 53/112/42
f 38/113/43 54/114/43 107/35/43 75/34/43
f 38/113/44 76/44/44 108/43/44 54/114/44
f 39/115/45 55/116/45 109/41/45 77/40/45
f 39/115/46 78/117/46 110/118/46 55/116/46
f 40/119/47 56/120/47 111/47/47 79/46/47
f 40/119/48 80/56/48 112/55/48 56/120/48
f 41/121/49 57/122/49 113/53/49 81/52/49
f 41/121/50 82/62/50 114/61/50 57/122/50
f 42/123/51 58/124/51 115/59/51 83/58/51
f 42/123/52 84/68/52 116/67/52 58/124/52
f 43/125/53 59/126/53 117/65/53 85/64/53
f 43/125/54 86/76/54 118/75/54 59/126/54
f 44/127/55 60/128/55 119/71/55 87/70/55
f 44/127/56 88/82/56 120/81/56 60/128/56
f 45/129/57 61/130/57 121/79/57 89/78/57
f 45/129/58 90/88/58 122/87/58 61/130/58
f 46/131/59 62/132/59 123/85/59 91/84/59
f 46/131/60 92/96/60 124/95/60 62/132/60
f 47/133/61 63/134/61 125/91/61 93/90/61
f 47/133/62 94/102/62 126/101/62 63/134/62
f 48/135/63 64/136/63 127/99/63 95/98/63
f 48/135/64 96/6/64 128/5/64 64/136/64
f 17/137/65 136/138/65 32/139/65 127/140/65 64/141/65 128/142/65
f 31/143/66 125/144/66 63/145/66 126/146/66 32/139/66 136/138/66
f 18/147/67 99/148/67 50/149/67 100/150/67 19/151/67 129/152/67
f 18/147/68 129/152/68 17/137/68 97/153/68 49/154/68 98/155/68
f 20/156/69 103/157/69 52/158/69 104/159/69 21/160/69 130/161/69
f 20/156/70 130/161/70 19/151/70 101/162/70 51/163/70 102/164/70
f 22/165/71 107/166/71 54/167/71 108/168/71 23/169/71 131/170/71
f 22/165/72 131/170/72 21/160/72 105/171/72 53/172/72 106/173/72
f 24/174/73 111/175/73 56/176/73 112/177/73 25/178/73 132/179/73
f 24/174/74 132/179/74 23/169/74 109/180/74 55/181/74 110/182/74
f 26/183/75 115/184/75 58/185/75 116/186/75 27/187/75 133/188/75
f 26/183/76 133/188/76 25/178/76 113/189/76 57/190/76 114/191/76
f 28/192/77 119/193/77 60/194/77 120/195/77 29/196/77 134/197/77
f 28/192/78 134/197/78 27/187/78 117/198/78 59/199/78 118/200/78
f 30/201/79 123/202/79 62/203/79 124/204/79 31/143/79 135/205/79
f 30/201/80 135/205/80 29/196/80 121/206/80 61/207/80 122/208/80
f 137/209/81 129/152/81 138/210/81
f 138/210/82 129/152/82 19/151/82 130/161/82
f 138/210/83 130/161/83 139/211/83
f 139/211/84 130/161/84 21/160/84 131/170/84
f 139/211/85 131/170/85 140/212/85
f 140/212/86 131/170/86 23/169/86 132/179/86
f 140/212/87 132/179/87 141/213/87
f 141/213/88 132/179/88 25/178/88 133/188/88
f 141/213/89 133/188/89 142/214/89
f 142/214/90 133/188/90 27/187/90 134/197/90
f 142/214/91 134/197/91 143/215/91
f 143/215/92 134/197/92 29/196/92 135/205/92
f 143/215/93 135/205/93 144/216/93
f 144/216/94 135/205/94 31/143/94 136/138/94
f 144/216/95 136/138/95 137/209/95
f 17/137/96 129/152/96 137/209/96 136/138/96
f 137/209/97 138/210/97 139/211/97 140/212/97 141/213/97 142/214/97 143/215/97 144/216/97
f 1/1/98 145/217/98 2/7/98 66/12/98 33/103/98 65/2/98
f 1/218/99 96/219/99 48/220/99 95/221/99 16/222/99 152/223/99
f 3/13/100 146/224/100 4/23/100 70/26/100 35/107/100 69/14/100
f 3/13/101 68/18/101 34/105/101 67/8/101 2/7/101 145/217/101
f 5/27/102 147/225/102 6/33/102 74/38/102 37/111/102 73/28/102
f 5/27/103 72/32/103 36/109/103 71/20/103 4/19/103 146/226/103
f 7/39/104 148/227/104 8/228/104 78/117/104 39/115/104 77/40/104
f 7/39/105 76/44/105 38/113/105 75/34/105 6/33/105 147/225/105
f 9/51/106 149/229/106 10/57/106 82/62/106 41/121/106 81/52/106
f 9/51/107 80/56/107 40/119/107 79/46/107 8/45/107 148/230/107
f 11/231/108 150/232/108 12/69/108 86/233/108 43/234/108 85/235/108
f 11/231/109 84/236/109 42/237/109 83/238/109 10/239/109 149/240/109
f 13/77/110 151/241/110 14/83/110 90/88/110 45/129/110 89/78/110
f 13/77/111 88/82/111 44/127/111 87/70/111 12/69/111 150/232/111
f 15/93/112 152/223/112 16/222/112 94/242/112 47/243/112 93/244/112
f 15/93/113 92/96/113 46/131/113 91/84/113 14/83/113 151/241/113
f 1/1/114 152/245/114 153/246/114 145/217/114
f 3/13/115 145/217/115 153/246/115 146/224/115
f 5/27/116 146/226/116 153/247/116 147/225/116
f 7/39/117 147/225/117 153/247/117 148/227/117
f 9/51/118 148/230/118 153/248/118 149/229/118
f 11/231/119 149/240/119 153/249/119 150/232/119
f 13/77/120 150/232/120 153/249/120 151/241/120
f 15/93/121 151/241/121 153/249/121 152/223/121
